<svg width="48" height="48" viewBox="0 0 48 48" fill="none" xmlns="http://www.w3.org/2000/svg">
<g clip-path="url(#clip0)">
<path d="M16.3937 27.665L15.1855 28.8377C15.0149 29.0035 14.9187 29.231 14.9187 29.4687V29.9692C14.9187 30.4548 15.3126 30.8487 15.7984 30.8487H23.0126C23.4991 30.8487 23.8926 30.4548 23.8926 29.9692V29.3214C23.8926 28.8357 23.4991 28.4417 23.0126 28.4417H19.0265L19.1364 28.3406C21.7416 25.8307 23.5855 23.8552 23.5855 21.2829C23.5855 19.2262 22.2489 17.151 19.2617 17.151C17.9577 17.151 16.6806 17.5695 15.6654 18.329C15.3357 18.5763 15.2213 19.0195 15.391 19.3954L15.6129 19.8861C15.7206 20.1248 15.9285 20.303 16.1813 20.3724C16.4326 20.4418 16.7038 20.3949 16.9183 20.2452C17.5711 19.7893 18.243 19.558 18.9162 19.558C20.2263 19.558 20.8904 20.2094 20.8904 21.4851C20.8729 23.214 19.4388 24.7659 16.3937 27.665Z" fill="white"/>
<path d="M29.5429 17.3653C29.5194 17.3631 29.4957 17.3622 29.4722 17.3622H29.2036C28.916 17.3622 28.6469 17.5027 28.4825 17.738L23.0947 25.4484C22.9915 25.5962 22.9362 25.7721 22.9362 25.9523V26.5704C22.9362 27.0562 23.3298 27.4501 23.8156 27.4501H28.735V29.9691C28.735 30.4548 29.1286 30.8487 29.6144 30.8487H30.4544C30.9399 30.8487 31.3342 30.4548 31.3342 29.9691V27.4501H32.2015C32.6873 27.4501 33.0813 27.0562 33.0813 26.5704V25.9992C33.0813 25.5137 32.6873 25.1196 32.2015 25.1196H31.3342V18.2419C31.3342 17.7564 30.9399 17.3624 30.4544 17.3624H29.6144C29.5903 17.3624 29.5663 17.3633 29.5429 17.3653ZM28.735 25.1196H26.0787C26.7535 24.1398 27.9073 22.4581 28.735 21.2153V25.1196Z" fill="white"/>
<path d="M24.0331 44.195C13.6801 44.195 5.25712 35.772 5.25712 25.419C5.25712 15.6156 12.81 7.54434 22.4019 6.71456V9.70755C22.4019 9.92017 22.5192 10.1156 22.7067 10.2154C22.7916 10.2608 22.8846 10.283 22.9773 10.283C23.0895 10.283 23.2017 10.2501 23.2982 10.1851L30.0941 5.61918C30.2533 5.51234 30.3488 5.3332 30.3488 5.14143C30.3488 4.94981 30.2533 4.77052 30.0941 4.66368L23.2982 0.0977131C23.1218 -0.0208498 22.8942 -0.0327213 22.7066 0.0675777C22.5191 0.167572 22.4017 0.362996 22.4017 0.575465V2.89711C10.7093 3.73603 1.452 13.5162 1.452 25.4189C1.452 37.8701 11.582 47.9999 24.033 47.9999C29.7977 47.9999 35.2856 45.8278 39.486 41.8841L36.8817 39.1101C33.3894 42.3892 28.8265 44.195 24.0331 44.195Z" fill="white"/>
<path d="M43.3085 13.6506C42.5306 12.3783 41.6209 11.177 40.6056 10.0806L37.8137 12.6657C38.6587 13.5781 39.4151 14.5776 40.0626 15.6358L43.3085 13.6506Z" fill="white"/>
<path d="M42.6379 22.8691L46.4083 22.3572C46.2071 20.8748 45.8566 19.4087 45.3664 17.9995L41.7726 19.2492C42.1796 20.4194 42.4706 21.6373 42.6379 22.8691Z" fill="white"/>
<path d="M36.9842 6.91881C35.7597 6.05995 34.4458 5.32133 33.0787 4.72304L31.5534 8.20885C32.6894 8.70608 33.7816 9.32005 34.7993 10.0339L36.9842 6.91881Z" fill="white"/>
<path d="M38.538 37.3425L41.4759 39.7604C42.4262 38.6057 43.2642 37.3531 43.9663 36.0374L40.6095 34.2458C40.0257 35.3398 39.3288 36.3818 38.538 37.3425Z" fill="white"/>
<path d="M42.7539 26.871C42.6592 28.1125 42.4402 29.3464 42.1035 30.5379L45.765 31.5732C46.1707 30.1386 46.4341 28.654 46.5482 27.1609L42.7539 26.871Z" fill="white"/>
</g>
<defs>
<clipPath id="clip0">
<rect width="48" height="48" fill="white"/>
</clipPath>
</defs>
</svg>
