<svg width="12" height="20" viewBox="0 0 12 20" fill="none" xmlns="http://www.w3.org/2000/svg">
<path d="M10.9992 0.00416134L8.40565 0C5.49191 0 3.60893 1.9319 3.60893 4.92203V7.19141H1.00125C0.775918 7.19141 0.593445 7.37409 0.593445 7.59943V10.8875C0.593445 11.1128 0.776126 11.2953 1.00125 11.2953H3.60893V19.5922C3.60893 19.8175 3.7914 20 4.01673 20H7.419C7.64434 20 7.82681 19.8173 7.82681 19.5922V11.2953H10.8758C11.1011 11.2953 11.2836 11.1128 11.2836 10.8875L11.2848 7.59943C11.2848 7.49123 11.2418 7.38762 11.1654 7.31105C11.0891 7.23448 10.985 7.19141 10.8768 7.19141H7.82681V5.26763C7.82681 4.34298 8.04715 3.87358 9.25164 3.87358L10.9988 3.87295C11.2239 3.87295 11.4064 3.69027 11.4064 3.46514V0.411972C11.4064 0.187052 11.2241 0.00457747 10.9992 0.00416134Z" fill="#D1D1D1"/>
</svg>
