<svg width="178" height="36" viewBox="0 0 178 36" fill="none" xmlns="http://www.w3.org/2000/svg">
<path d="M7.344 12.994C10.284 12.994 11.754 14.032 11.754 16.108C11.754 17.248 11.388 18.16 10.656 18.844C9.936 19.528 8.946 19.87 7.686 19.87C7.098 19.87 6.576 19.702 6.12 19.366C5.904 19.222 5.724 19.054 5.58 18.862C6.456 18.862 7.122 18.598 7.578 18.07C8.046 17.53 8.28 16.738 8.28 15.694C8.28 14.65 7.764 14.128 6.732 14.128H6.3C6.228 14.128 6.162 14.134 6.102 14.146L4.032 25H0.126L2.34 13.21C3.624 13.09 4.638 13.024 5.382 13.012C6.126 13 6.78 12.994 7.344 12.994ZM11.6753 25L13.8713 13.174C15.0593 13.042 16.5173 12.976 18.2453 12.976C19.9853 12.976 21.2573 13.228 22.0613 13.732C22.8653 14.236 23.2673 14.998 23.2673 16.018C23.2673 17.026 23.0033 17.848 22.4753 18.484C21.9593 19.12 21.2513 19.54 20.3513 19.744C20.5553 20.74 20.8913 21.64 21.3593 22.444C21.7913 23.2 22.2593 23.698 22.7633 23.938C22.5833 24.442 22.3073 24.802 21.9353 25.018C21.5753 25.246 21.1313 25.36 20.6033 25.36C20.0873 25.36 19.6253 25.21 19.2173 24.91C18.8093 24.598 18.4433 24.16 18.1193 23.596C17.4353 22.372 17.0573 20.794 16.9853 18.862H17.1113C17.9993 18.838 18.6653 18.598 19.1093 18.142C19.5533 17.674 19.7753 16.954 19.7753 15.982C19.7753 14.77 19.2653 14.14 18.2453 14.092H17.8493C17.7413 14.092 17.6573 14.098 17.5973 14.11L15.5273 25H11.6753ZM24.3592 20.608C24.3592 18.34 24.9472 16.492 26.1232 15.064C27.3712 13.516 29.0812 12.742 31.2532 12.742C32.8252 12.742 34.0072 13.126 34.7992 13.894C35.5912 14.65 35.9872 15.832 35.9872 17.44C35.9872 19.888 35.3632 21.826 34.1152 23.254C32.8792 24.658 31.2232 25.36 29.1472 25.36C27.5272 25.36 26.3212 24.958 25.5292 24.154C24.7492 23.338 24.3592 22.156 24.3592 20.608ZM29.0932 16.882C28.5532 19.042 28.2832 20.974 28.2832 22.678C28.2832 23.086 28.3492 23.422 28.4812 23.686C28.6252 23.95 28.8772 24.082 29.2372 24.082C29.6092 24.082 29.9092 23.998 30.1372 23.83C30.3652 23.65 30.5692 23.362 30.7492 22.966C31.0372 22.318 31.3132 21.31 31.5772 19.942C31.8532 18.562 32.0032 17.59 32.0272 17.026C32.0512 16.45 32.0632 15.946 32.0632 15.514C32.0632 15.082 31.9972 14.728 31.8652 14.452C31.7332 14.176 31.4872 14.038 31.1272 14.038C30.7792 14.038 30.4852 14.146 30.2452 14.362C29.8012 14.77 29.4172 15.61 29.0932 16.882ZM43.9065 12.994C46.8465 12.994 48.3165 14.032 48.3165 16.108C48.3165 17.248 47.9505 18.16 47.2185 18.844C46.4985 19.528 45.5085 19.87 44.2485 19.87C43.6605 19.87 43.1385 19.702 42.6825 19.366C42.4665 19.222 42.2865 19.054 42.1425 18.862C43.0185 18.862 43.6845 18.598 44.1405 18.07C44.6085 17.53 44.8425 16.738 44.8425 15.694C44.8425 14.65 44.3265 14.128 43.2945 14.128H42.8625C42.7905 14.128 42.7245 14.134 42.6645 14.146L40.5945 25H36.6885L38.9025 13.21C40.1865 13.09 41.2005 13.024 41.9445 13.012C42.6885 13 43.3425 12.994 43.9065 12.994ZM56.0858 22.228C56.3138 22.516 56.4278 22.894 56.4278 23.362C56.4278 24.01 56.1878 24.508 55.7078 24.856C55.2278 25.192 54.6098 25.36 53.8538 25.36C53.4218 25.36 52.8758 25.312 52.2158 25.216C50.9198 25.012 50.0738 24.91 49.6778 24.91C49.2818 24.91 49.0058 24.922 48.8498 24.946C48.6938 24.958 48.4898 24.976 48.2378 25L50.4518 13.12H58.2098C58.2098 13.852 58.0298 14.41 57.6698 14.794C57.3218 15.178 56.7998 15.37 56.1038 15.37C55.4078 15.37 54.7058 15.208 53.9978 14.884L53.4398 18.034H56.6438C56.6438 18.67 56.4878 19.168 56.1758 19.528C55.8638 19.876 55.4438 20.05 54.9158 20.05C54.3998 20.05 53.9798 19.99 53.6558 19.87C53.3318 19.75 53.1518 19.672 53.1158 19.636L52.4678 23.038C52.7558 23.074 53.1698 23.092 53.7098 23.092C54.6338 23.092 55.4258 22.804 56.0858 22.228ZM57.9233 25L60.1193 13.174C61.3073 13.042 62.7653 12.976 64.4933 12.976C66.2333 12.976 67.5053 13.228 68.3093 13.732C69.1133 14.236 69.5153 14.998 69.5153 16.018C69.5153 17.026 69.2513 17.848 68.7233 18.484C68.2073 19.12 67.4993 19.54 66.5993 19.744C66.8033 20.74 67.1393 21.64 67.6073 22.444C68.0393 23.2 68.5073 23.698 69.0113 23.938C68.8313 24.442 68.5553 24.802 68.1833 25.018C67.8233 25.246 67.3793 25.36 66.8513 25.36C66.3353 25.36 65.8733 25.21 65.4653 24.91C65.0573 24.598 64.6913 24.16 64.3673 23.596C63.6833 22.372 63.3053 20.794 63.2333 18.862H63.3593C64.2473 18.838 64.9133 18.598 65.3573 18.142C65.8013 17.674 66.0233 16.954 66.0233 15.982C66.0233 14.77 65.5133 14.14 64.4933 14.092H64.0973C63.9893 14.092 63.9053 14.098 63.8453 14.11L61.7753 25H57.9233ZM71.7773 16.234C71.3693 15.922 71.1653 15.436 71.1653 14.776C71.1653 14.104 71.3813 13.594 71.8133 13.246C72.2573 12.898 72.8573 12.724 73.6133 12.724C74.0933 12.724 74.9033 12.808 76.0433 12.976L77.2673 13.156C77.6753 13.204 78.0893 13.228 78.5093 13.228C78.9413 13.228 79.3013 13.138 79.5893 12.958C80.0213 13.342 80.2373 13.81 80.2373 14.362C80.2373 14.914 79.9913 15.388 79.4993 15.784C78.9953 16.204 78.4193 16.414 77.7713 16.414C77.4593 16.414 77.0513 16.372 76.5473 16.288C75.9593 18.136 75.6653 19.702 75.6653 20.986C75.6653 22.27 75.9893 23.248 76.6373 23.92C76.3373 24.46 75.9653 24.832 75.5213 25.036C75.0773 25.252 74.5193 25.36 73.8473 25.36C73.1873 25.36 72.6473 25.18 72.2273 24.82C71.8193 24.448 71.6153 23.884 71.6153 23.128C71.6153 22.252 71.8553 21.094 72.3353 19.654C72.8153 18.226 73.4153 16.966 74.1353 15.874C73.7873 15.838 73.4333 15.82 73.0733 15.82C72.3293 15.82 71.8973 15.958 71.7773 16.234ZM82.4077 19.708C82.0597 16.456 81.2737 14.482 80.0497 13.786C80.3017 13.474 80.6317 13.234 81.0397 13.066C81.4477 12.886 81.8977 12.796 82.3897 12.796C82.8817 12.796 83.3137 12.886 83.6857 13.066C84.0577 13.234 84.3637 13.504 84.6037 13.876C85.0597 14.584 85.2877 15.784 85.2877 17.476V18.772C86.0077 16.66 86.7277 15.148 87.4477 14.236C88.1797 13.3 89.0017 12.832 89.9137 12.832C90.2737 12.832 90.5737 12.928 90.8137 13.12C91.0537 13.3 91.2337 13.528 91.3537 13.804C90.4297 14.212 89.5237 15.004 88.6357 16.18C87.7477 17.356 87.0157 18.766 86.4397 20.41L85.3777 25H81.3637L82.4077 19.708ZM103.481 21.274C103.793 21.502 103.949 21.862 103.949 22.354C103.949 22.834 103.841 23.248 103.625 23.596C103.421 23.932 103.115 24.232 102.707 24.496C101.831 25.06 100.625 25.342 99.0893 25.342C97.5653 25.342 96.3833 24.946 95.5433 24.154C94.7153 23.35 94.3013 22.24 94.3013 20.824C94.3013 18.82 94.8233 17.056 95.8673 15.532C96.6593 14.404 97.7633 13.6 99.1793 13.12C99.9113 12.88 100.637 12.76 101.357 12.76C102.077 12.76 102.659 12.808 103.103 12.904C103.547 13 103.937 13.144 104.273 13.336C105.005 13.756 105.371 14.302 105.371 14.974C105.371 15.586 105.083 16.12 104.507 16.576C103.979 16.984 103.499 17.188 103.067 17.188C102.635 17.188 102.329 17.158 102.149 17.098C102.197 16.666 102.221 16.312 102.221 16.036C102.221 15.748 102.215 15.502 102.203 15.298C102.191 15.094 102.155 14.896 102.095 14.704C101.975 14.26 101.729 14.038 101.357 14.038C100.997 14.038 100.631 14.212 100.259 14.56C99.8993 14.896 99.5633 15.352 99.2513 15.928C98.5433 17.236 98.1893 18.664 98.1893 20.212C98.1893 20.956 98.3993 21.544 98.8193 21.976C99.2393 22.396 99.8993 22.606 100.799 22.606C101.471 22.606 102.125 22.384 102.761 21.94C103.037 21.748 103.277 21.526 103.481 21.274ZM113.343 25.36C111.807 25.36 110.967 24.268 110.823 22.084H107.727C107.487 22.636 107.283 23.152 107.115 23.632L106.647 25H104.127L109.797 13.12H113.667L114.423 21.868C114.543 23.128 114.843 23.944 115.323 24.316C114.975 25.012 114.315 25.36 113.343 25.36ZM108.285 20.77H110.769L110.553 16.144V15.658L109.275 18.484L108.285 20.77ZM117.463 16.234C117.055 15.922 116.851 15.436 116.851 14.776C116.851 14.104 117.067 13.594 117.499 13.246C117.943 12.898 118.543 12.724 119.299 12.724C119.779 12.724 120.589 12.808 121.729 12.976L122.953 13.156C123.361 13.204 123.775 13.228 124.195 13.228C124.627 13.228 124.987 13.138 125.275 12.958C125.707 13.342 125.923 13.81 125.923 14.362C125.923 14.914 125.677 15.388 125.185 15.784C124.681 16.204 124.105 16.414 123.457 16.414C123.145 16.414 122.737 16.372 122.233 16.288C121.645 18.136 121.351 19.702 121.351 20.986C121.351 22.27 121.675 23.248 122.323 23.92C122.023 24.46 121.651 24.832 121.207 25.036C120.763 25.252 120.205 25.36 119.533 25.36C118.873 25.36 118.333 25.18 117.913 24.82C117.505 24.448 117.301 23.884 117.301 23.128C117.301 22.252 117.541 21.094 118.021 19.654C118.501 18.226 119.101 16.966 119.821 15.874C119.473 15.838 119.119 15.82 118.759 15.82C118.015 15.82 117.583 15.958 117.463 16.234ZM132.359 16.684C132.539 16.324 132.629 15.976 132.629 15.64C132.629 15.304 132.611 15.046 132.575 14.866C132.539 14.674 132.479 14.506 132.395 14.362C132.215 14.05 131.945 13.894 131.585 13.894C131.141 13.894 130.739 14.056 130.379 14.38C129.995 14.716 129.803 15.148 129.803 15.676C129.803 16.012 129.917 16.312 130.145 16.576C130.385 16.828 130.685 17.074 131.045 17.314C131.405 17.554 131.789 17.794 132.197 18.034C132.605 18.274 132.989 18.538 133.349 18.826C134.177 19.486 134.591 20.26 134.591 21.148C134.591 21.748 134.429 22.306 134.105 22.822C133.793 23.326 133.373 23.764 132.845 24.136C131.693 24.952 130.355 25.36 128.831 25.36C127.595 25.36 126.659 25.162 126.023 24.766C125.387 24.358 125.069 23.848 125.069 23.236C125.069 22.144 125.495 21.46 126.347 21.184C126.587 21.1 126.887 21.058 127.247 21.058C127.619 21.058 128.015 21.136 128.435 21.292C128.243 21.784 128.147 22.252 128.147 22.696C128.147 23.656 128.489 24.136 129.173 24.136C129.617 24.136 130.019 23.974 130.379 23.65C130.751 23.326 130.937 22.984 130.937 22.624C130.937 22.252 130.817 21.934 130.577 21.67C130.349 21.406 130.061 21.172 129.713 20.968C129.365 20.752 128.987 20.542 128.579 20.338C128.183 20.134 127.811 19.888 127.463 19.6C126.647 18.94 126.239 18.082 126.239 17.026C126.239 16.342 126.407 15.736 126.743 15.208C127.079 14.668 127.517 14.218 128.057 13.858C129.137 13.126 130.337 12.76 131.657 12.76C132.989 12.76 133.973 12.958 134.609 13.354C135.257 13.75 135.581 14.284 135.581 14.956C135.581 15.544 135.353 16.024 134.897 16.396C134.501 16.708 134.063 16.864 133.583 16.864C133.103 16.864 132.695 16.804 132.359 16.684Z" fill="#2D9CDB"/>
<g clip-path="url(#clip0)">
<path d="M166.989 27.1228C167.811 29.3282 168.173 30.4835 167.944 31.5596C167.492 33.6848 165.695 34.3797 163.569 33.9277C162.631 33.7285 162.027 33.5987 160.666 32.4781C160.666 32.4781 159.868 31.3609 157.53 30.9612C155.209 30.3712 154.023 31.078 154.023 31.078C152.325 31.5478 151.743 31.4154 150.807 31.2164C148.681 30.7645 147.32 29.3995 147.772 27.2731C148.001 26.197 148.803 25.2906 150.45 23.6084C150.45 23.6084 153.605 20.2317 156.013 18.8394C157.752 17.8351 159.88 18.2924 159.88 18.2924L160.537 18.432L160.537 18.4314C160.537 18.4314 162.76 18.8983 163.849 20.505C165.406 22.8091 166.989 27.1234 166.989 27.1228ZM155.564 14.6683C157.787 15.1409 160.186 12.7155 160.922 9.2517C161.658 5.78786 160.453 2.59652 158.23 2.12399C156.007 1.65145 153.608 4.07677 152.872 7.54061C152.135 11.0045 153.34 14.1958 155.564 14.6683ZM150.415 19.9229C152.214 19.5147 153.158 16.912 152.522 14.1092C151.887 11.3064 149.913 9.36464 148.114 9.77222C146.315 10.1798 145.371 12.7832 146.006 15.5859C146.642 18.3887 148.616 20.3299 150.415 19.9229ZM164.922 16.6574C167.145 17.13 169.544 14.7048 170.28 11.241C171.017 7.77711 169.811 4.58565 167.588 4.11311C165.365 3.64057 162.966 6.06589 162.23 9.52973C161.494 12.9936 162.699 16.1849 164.922 16.6574ZM173.719 15.2142C172.241 14.1094 169.649 15.0806 167.928 17.3831C166.207 19.6857 166.011 22.4473 167.489 23.5521C168.967 24.6564 171.56 23.6851 173.28 21.3832C175.001 19.0813 175.198 16.3191 173.719 15.2142Z" fill="#2D9CDB"/>
</g>
<defs>
<clipPath id="clip0">
<rect width="30" height="30" fill="white" transform="translate(148.237) rotate(12)"/>
</clipPath>
</defs>
</svg>
