<svg width="105" height="30" viewBox="0 0 105 30" fill="none" xmlns="http://www.w3.org/2000/svg">
<g clip-path="url(#clip0)">
<path d="M28.2673 5.53207C22.9703 5.53207 18.6386 9.72379 18.6386 14.9878C18.6386 20.1543 22.8465 24.4923 28.1683 24.4923C33.5396 24.4923 37.7723 20.1787 37.7723 14.9391C37.7723 9.82127 33.5396 5.53207 28.2673 5.53207ZM28.1683 20.4468C25.0495 20.4468 22.7475 17.8879 22.7475 14.9391C22.7475 11.9415 25.2723 9.55319 28.2673 9.55319C31.3119 9.55319 33.6634 12.1121 33.6634 15.0365C33.6634 18.0341 31.2129 20.4468 28.1683 20.4468Z" fill="#531E5D"/>
<path d="M48.7871 5.53207C43.4901 5.53207 39.1584 9.72379 39.1584 14.9878C39.1584 20.1543 43.3663 24.4923 48.6881 24.4923C54.0594 24.4923 58.2921 20.1787 58.2921 14.9391C58.2921 9.82127 54.0594 5.53207 48.7871 5.53207ZM48.6881 20.4468C45.5693 20.4468 43.2673 17.8879 43.2673 14.9391C43.2673 11.9415 45.7921 9.55319 48.7871 9.55319C51.8317 9.55319 54.1832 12.1121 54.1832 15.0365C54.1832 18.0341 51.7327 20.4468 48.6881 20.4468Z" fill="#531E5D"/>
<path d="M82.3762 0C81.1881 0 80.2475 0.950447 80.2475 2.09586V22.3721C80.2475 23.5418 81.2129 24.4679 82.3762 24.4679C83.5643 24.4679 84.5049 23.5175 84.5049 22.3721V2.09586C84.5297 0.950447 83.5643 0 82.3762 0Z" fill="#531E5D"/>
<path d="M69.3317 5.53207C67.3267 5.53207 65.4703 6.14133 63.9604 7.16489C63.7376 6.23882 62.8713 5.53207 61.8564 5.53207C60.6683 5.53207 59.7525 6.48252 59.7525 7.62793V27.9041C59.7525 29.0739 60.6683 30 61.8564 30C63.0445 30 63.9604 29.0495 63.9604 27.9041V22.8594C65.4455 23.8586 67.302 24.4923 69.2327 24.4923C74.5297 24.4923 78.8614 20.3006 78.8614 15.0365C78.8366 9.84564 74.6535 5.53207 69.3317 5.53207ZM69.3317 20.4468C66.2871 20.4468 63.8366 18.0341 63.8366 15.0365C63.8366 12.1121 66.1881 9.55319 69.2327 9.55319C72.2277 9.55319 74.7525 11.9415 74.7525 14.9391C74.7525 17.8879 72.4257 20.4468 69.3317 20.4468Z" fill="#531E5D"/>
<path d="M102.896 5.53207C101.881 5.53207 101.015 6.23882 100.792 7.16489C99.2574 6.14133 97.4257 5.53207 95.4208 5.53207C90.099 5.53207 85.8911 9.87001 85.8911 15.0365C85.8911 20.2762 90.2228 24.4923 95.5198 24.4923C97.4505 24.4923 99.3069 23.8586 100.792 22.8594C101.015 23.7855 101.881 24.4923 102.896 24.4923C104.084 24.4923 105 23.5418 105 22.3964V7.62793C105 6.45815 104.084 5.53207 102.896 5.53207ZM95.4208 20.4468C92.302 20.4468 90 17.8879 90 14.9391C90 11.9415 92.5247 9.55319 95.5198 9.55319C98.5644 9.55319 100.916 12.1121 100.916 15.0365C100.916 18.0341 98.4653 20.4468 95.4208 20.4468Z" fill="#531E5D"/>
<path d="M15.6436 15.9139C14.4554 15.9139 13.5149 16.8643 13.5149 18.0097V20.1543H5.66832L16.6584 4.31355C16.9554 3.87489 17.1287 3.36311 17.1287 2.80259C17.1287 1.34036 15.9406 0.17058 14.4554 0.14621H2.12871C0.965347 0.14621 0 1.07229 0 2.24207C0 3.41185 0.965347 4.33792 2.12871 4.33792H11.4852L0.519802 20.1056C0.519802 20.1056 0 20.8123 0 21.6653C0 23.1275 1.21287 24.3217 2.69802 24.3217H17.7723V17.9854C17.7723 16.84 16.8317 15.9139 15.6436 15.9139Z" fill="#531E5D"/>
</g>
<defs>
<clipPath id="clip0">
<rect width="105" height="30" fill="white"/>
</clipPath>
</defs>
</svg>
