<svg width="48" height="48" viewBox="0 0 48 48" fill="none" xmlns="http://www.w3.org/2000/svg">
<path d="M20.7069 37.0963C20.5237 37.232 20.309 37.3283 20.0645 37.3283H15.5747C14.9661 37.3283 14.4744 36.8365 14.4744 36.2295V31.7397C14.4744 31.1327 14.9661 30.6407 15.5747 30.6407H19.3659C19.4213 29.6376 19.5816 28.6546 19.8618 27.7114H15.5747C14.9661 27.7114 14.4744 27.2191 14.4744 26.6114V22.1226C14.4744 21.5146 14.9661 21.0226 15.5747 21.0226H20.0646C20.6702 21.0226 21.1611 21.5144 21.1611 22.1226V24.8034C21.6898 23.9301 22.3141 23.1077 23.0554 22.3674C25.4571 19.9661 28.6485 18.6431 32.0458 18.6431C32.9018 18.6431 33.7448 18.7282 34.5642 18.8939L23.3432 9.21217C22.9315 8.85697 22.319 8.85697 21.9082 9.21217L7.42048 21.7112C7.17792 21.9205 7.03745 22.2234 7.03745 22.544V40.6186C7.03745 41.2247 7.52928 41.7165 8.13792 41.7165H24.6978C24.1198 41.3048 23.5646 40.8531 23.055 40.3419C22.0893 39.3773 21.3096 38.2789 20.7069 37.0963Z" fill="white"/>
<path d="M46.1582 42.3614L43.1518 39.3525C42.5777 38.7781 41.7673 38.5965 41.0341 38.7899L40.2147 37.971C43.5605 33.8454 43.3171 27.7579 39.4805 23.9203C37.4944 21.9347 34.8541 20.8406 32.0456 20.8406C29.2371 20.8406 26.5939 21.9347 24.6096 23.9203C22.6225 25.9074 21.528 28.5467 21.528 31.3541C21.528 34.163 22.6225 36.8027 24.6096 38.7883C26.5937 40.7765 29.2371 41.871 32.0456 41.871C34.4821 41.871 36.7936 41.0437 38.6611 39.5242L39.4814 40.345C39.2885 41.0758 39.4686 41.8848 40.0416 42.4582L43.048 45.4665C43.4765 45.8976 44.0395 46.1113 44.6025 46.1113C45.1648 46.1113 45.7278 45.8981 46.1563 45.4681C47.0142 44.6112 47.0142 43.2198 46.1582 42.3614ZM26.1633 37.2353C24.5909 35.6638 23.7269 33.5758 23.7269 31.3542C23.7269 29.1341 24.5907 27.0461 26.1633 25.4746C27.7347 23.9045 29.8229 23.0387 32.0456 23.0387C34.2672 23.0387 36.3533 23.9046 37.9278 25.4746C41.1686 28.7165 41.1686 33.991 37.9288 37.233C37.9288 37.2334 37.9278 37.2334 37.9278 37.235C37.9278 37.2355 37.9278 37.236 37.9257 37.236C36.3523 38.807 34.2662 39.6733 32.0456 39.6733C29.8238 39.6731 27.7349 38.8067 26.1633 37.2353Z" fill="white"/>
<path d="M40.4216 22.2866C40.8352 22.6432 41.3458 22.8179 41.8534 22.8179C42.4709 22.8179 43.0854 22.5581 43.5189 22.0534C44.3106 21.1322 44.2067 19.7451 43.2864 18.9534L24.0574 2.41985C23.2341 1.71121 22.016 1.71121 21.1938 2.41985L1.96575 18.9534C1.04351 19.7451 0.940635 21.132 1.73119 22.0534C2.52383 22.9738 3.91023 23.0757 4.8296 22.2866L22.6256 6.98385L40.4216 22.2866Z" fill="white"/>
</svg>
