<svg width="186" height="30" viewBox="0 0 186 30" fill="none" xmlns="http://www.w3.org/2000/svg">
<path fill-rule="evenodd" clip-rule="evenodd" d="M16.0268 5.47821C15.3963 5.47821 14.8702 5.4064 14.2744 5.33602V15.7595C14.2744 16.0075 14.2392 16.0779 14.0981 16.1837L8.20561 19.9653C9.08282 20.3894 10.135 20.6729 11.2237 20.6729C14.9401 20.6729 19.1479 18.6219 21.1139 13.499C21.2184 13.2155 21.4631 13.1451 21.4631 13.6397V13.9935C21.4631 19.611 17.2186 24.6635 10.9423 24.6635C4.10286 24.6635 0 19.4688 0 14.0638C0 10.0009 2.20668 6.21977 7.22335 4.62991C7.43487 4.55759 7.47005 4.66332 7.3284 4.77058C5.1197 6.50121 3.92652 9.32868 3.92652 12.1556C3.92652 15.1592 5.1197 18.1274 7.7846 19.7188L9.25774 18.5865C9.75054 18.1978 9.85357 17.8454 9.85357 17.2786V4.41682C8.2408 3.81655 6.80436 3.46268 5.46943 3.46268C3.64666 3.46268 1.99718 4.27411 0.384412 6.25471C0.209597 6.46627 0.103029 6.46627 0.103029 6.25471C0.314547 2.26204 3.85615 0 7.36359 0C11.398 0 15.1149 1.9806 19.1845 1.9806C20.621 1.9806 22.0956 1.66024 23.3226 0.989585C23.4974 0.919198 23.532 1.05987 23.4622 1.20064C22.2006 4.38188 19.1127 5.47821 16.0268 5.47821ZM35.1088 24.3466C34.9671 24.4874 34.9671 24.4525 34.8621 24.3821L32.0561 21.8735C31.7748 21.625 31.635 21.4139 31.635 20.9543V11.2719C31.635 11.1666 31.635 11.0593 31.4949 10.9535L30.5478 10.1047C30.4414 10.0363 30.3016 10.0009 30.162 10.0713L28.3743 10.918V20.0371C28.3743 20.1779 28.3377 20.319 28.4789 20.4244L29.2862 21.1305C29.4963 21.3067 29.8454 21.5197 30.162 21.4139L30.4414 21.3067C30.7925 21.1654 30.8644 21.377 30.6529 21.5546L27.4272 24.3466C27.2856 24.4874 27.2505 24.4525 27.1459 24.3821L24.3042 21.8381C23.9551 21.5546 23.9551 21.4843 23.9551 21.0247V5.33602C23.9551 5.1599 23.9551 5.12292 23.7787 4.98225L23.4275 4.66332C23.0778 4.34643 22.9381 4.41682 22.4819 4.62991L21.7795 4.9468C21.6746 4.98225 21.5695 4.84097 21.7444 4.66332L25.4613 1.51906C25.6029 1.37829 25.6029 1.41374 25.7075 1.48412L27.9528 3.56994C28.2342 3.85189 28.3743 4.02811 28.3743 4.4872V10.388L33.0378 7.42041C33.1795 7.34951 33.3192 7.34951 33.4242 7.45535L35.7047 9.57671C36.0192 9.85867 36.089 10.0713 36.089 10.4235V20.106C36.089 20.2837 36.089 20.319 36.2654 20.4598L37.1426 21.2008C37.4923 21.5197 37.632 21.4489 38.0881 21.2377L38.7905 20.9194C38.8951 20.884 39.0021 21.0247 38.8252 21.2008L35.1088 24.3466ZM50.0488 12.6507L43.8404 16.573V19.5761C43.8404 19.8575 43.8756 19.9653 44.1218 20.0706L46.1209 21.1305C46.4701 21.3067 47.0679 21.4843 47.4192 21.2712L49.2782 20.1779C49.5926 20.0002 49.8393 20.106 49.663 20.2487L44.578 24.3821C44.4715 24.4874 44.5081 24.4525 44.368 24.3821L39.8422 21.9788C39.4909 21.8032 39.3865 21.7308 39.3865 21.2377V10.0713C39.3865 9.89361 39.4578 9.82322 39.6658 9.75283L47.0679 7.34951C47.173 7.31468 47.2775 7.27923 47.3473 7.42041L50.1187 12.3672C50.1885 12.4745 50.1885 12.5803 50.0488 12.6507ZM43.9123 9.22285L43.8404 9.25636V16.1148L46.2958 14.0638C46.4369 13.9586 46.4369 13.8862 46.3671 13.7824L43.9123 9.22285ZM76.5249 5.47821C75.8939 5.47821 75.3678 5.4064 74.7719 5.33602V15.7595C74.7719 16.0075 74.7353 16.0779 74.5955 16.1837L68.7051 19.9653C69.5804 20.3894 70.6324 20.6729 71.7211 20.6729C75.4377 20.6729 79.6455 18.6219 81.6094 13.499C81.7164 13.2155 81.9626 13.1451 81.9626 13.6397V13.9935C81.9626 19.611 77.7181 24.6635 71.4398 24.6635C64.6004 24.6635 60.4956 19.4688 60.4956 14.0638C60.4956 10.0009 62.7063 6.21977 67.7214 4.62991C67.9309 4.55759 67.9676 4.66332 67.826 4.77058C65.6157 6.50121 64.424 9.32868 64.424 12.1556C64.424 15.1592 65.6157 18.1274 68.2822 19.7188L69.7552 18.6569C70.2813 18.305 70.353 17.9158 70.353 17.3509V4.41682C68.7383 3.81655 67.3004 3.46268 65.9685 3.46268C64.1442 3.46268 62.4967 4.27411 60.8839 6.25471C60.707 6.46627 60.6006 6.46627 60.6006 6.25471C60.8121 2.26204 64.3542 0 67.8626 0C71.8961 0 75.6125 1.9806 79.6805 1.9806C81.1205 1.9806 82.5916 1.66024 83.82 0.989585C83.9963 0.919198 84.0295 1.05987 83.9617 1.20064C82.6981 4.38188 79.6108 5.47821 76.5249 5.47821ZM94.2714 12.6507L88.0645 16.573V19.5761C88.0645 19.8575 88.0997 19.9653 88.3444 20.0706L90.343 21.1305C90.6941 21.3067 91.2921 21.4843 91.6412 21.2712L93.5007 20.1779C93.8172 20.0002 94.0614 20.106 93.887 20.2487L88.8001 24.3821C88.6955 24.4874 88.7302 24.4525 88.5905 24.3821L84.0667 21.9788C83.7151 21.8032 83.6105 21.7308 83.6105 21.2377V10.0713C83.6105 9.89361 83.6783 9.82322 83.8899 9.75283L91.2921 7.34951C91.397 7.31468 91.5016 7.27923 91.5734 7.42041L94.3427 12.3672C94.4146 12.4745 94.4146 12.5803 94.2714 12.6507ZM88.1343 9.22285L88.0645 9.25636V16.1148L90.5198 14.0638C90.6595 13.9586 90.6595 13.8862 90.5897 13.7824L88.1343 9.22285ZM99.183 24.3466C99.0419 24.4874 99.0087 24.4525 98.9037 24.3821L96.0605 21.8381C95.7113 21.5546 95.7113 21.4843 95.7113 21.0247V5.33602C95.7113 5.1599 95.7113 5.12292 95.5345 4.98225L95.1853 4.66332C94.8341 4.34643 94.6924 4.41682 94.2383 4.62991L93.5359 4.9468C93.4308 4.98225 93.3243 4.84097 93.5007 4.66332L97.2176 1.51906C97.3573 1.37829 97.3573 1.41374 97.4638 1.48412L99.7091 3.56994C99.9905 3.85189 100.13 4.02811 100.13 4.4872V20.0371C100.13 20.1779 100.094 20.319 100.234 20.4244L101.043 21.1305C101.252 21.3067 101.603 21.5197 101.918 21.4139L102.199 21.3067C102.55 21.1654 102.619 21.377 102.409 21.5546L99.183 24.3466ZM113.809 12.6507L107.602 16.573V19.5761C107.602 19.8575 107.635 19.9653 107.882 20.0706L109.881 21.1305C110.23 21.3067 110.828 21.4843 111.177 21.2712L113.037 20.1779C113.353 20.0002 113.598 20.106 113.423 20.2487L108.336 24.3821C108.233 24.4874 108.268 24.4525 108.127 24.3821L103.602 21.9788C103.251 21.8032 103.145 21.7308 103.145 21.2377V10.0713C103.145 9.89361 103.216 9.82322 103.426 9.75283L110.828 7.34951C110.933 7.31468 111.038 7.27923 111.108 7.42041L113.879 12.3672C113.949 12.4745 113.949 12.5803 113.809 12.6507ZM107.669 9.22285L107.602 9.25636V16.1148L110.057 14.0638C110.195 13.9586 110.195 13.8862 110.125 13.7824L107.669 9.22285ZM126.576 26.7849L122.717 29.9292C122.613 30.0345 122.543 30.0011 122.473 29.9641C120.437 28.5858 118.824 27.9506 117.071 27.9506C115.843 27.9506 114.615 28.1966 113.037 28.6213C112.897 28.6582 112.862 28.5509 112.932 28.4451C114.58 25.9365 116.615 25.1601 118.51 25.1601C121.316 25.1601 123.944 26.8906 124.997 27.5963L125.103 27.5259C125.382 26.8906 125.489 26.2883 125.489 25.7235C125.489 23.9225 124.016 22.4738 122.191 21.5546L118.403 24.3821C118.263 24.4874 118.158 24.4525 118.054 24.3466L115.668 22.155C115.317 21.8381 115.247 21.6973 115.247 21.3415V11.0253C115.247 10.8476 115.387 10.8128 115.457 10.7774L123.524 7.42041C123.736 7.31468 123.874 7.31468 123.944 7.38496L126.191 9.647C126.471 9.92895 126.61 10.142 126.61 10.388V19.7891C128.083 20.884 128.716 21.9788 128.716 23.0742C128.716 24.3117 128.119 25.5123 126.576 26.7849ZM122.191 11.1311C122.191 10.9884 122.156 10.8831 122.017 10.7424L120.718 9.43594C120.649 9.36362 120.613 9.4005 120.507 9.43594L119.664 9.82322V19.9653C119.664 20.5302 119.808 20.6005 120.367 21.1305C120.683 21.4139 120.856 21.5197 121.174 21.5197C121.455 21.5197 121.91 21.3067 122.191 21.1305V11.1311ZM138.009 11.9076C137.834 12.0503 137.659 12.1207 137.485 12.1207C137.308 12.1207 137.132 12.0503 136.959 11.9076L134.818 10.0713L134.608 10.2474V20.0706C134.608 20.2837 134.608 20.319 134.748 20.4244L135.309 20.9194C135.905 21.4139 136.045 21.4843 136.677 21.2377L137.098 21.0601C137.378 20.9543 137.448 21.095 137.273 21.2712L133.659 24.3466C133.522 24.4874 133.485 24.4525 133.38 24.3821L130.609 21.8735C130.294 21.5901 130.188 21.4843 130.188 21.095V11.0253L129.347 10.142C129.275 10.0713 129.242 10.0713 129.135 10.142L128.083 10.7424C127.769 10.918 127.662 10.6715 127.874 10.4959L131.486 7.42041C131.626 7.31468 131.697 7.31468 131.767 7.38496L134.222 9.82322L136.642 7.42041C136.782 7.31468 136.887 7.27923 137.027 7.42041L138.886 9.15256C139.237 9.46935 139.447 9.647 139.658 9.647C139.798 9.647 139.975 9.57671 140.186 9.43594L140.675 9.11559C140.992 8.90453 141.131 9.22285 140.956 9.4005L138.009 11.9076ZM150.952 24.3466C150.812 24.4874 150.775 24.4525 150.67 24.3821L147.478 21.5546L143.691 24.3821C143.552 24.4874 143.517 24.4525 143.375 24.3466L140.956 22.155C140.571 21.8381 140.535 21.7658 140.535 21.3415V11.0253C140.535 10.8476 140.675 10.8128 140.745 10.7774L148.885 7.38496C149.023 7.31468 149.163 7.31468 149.302 7.45535L151.478 9.647C151.794 9.96389 151.899 10.142 151.899 10.3532V20.319L152.53 20.884C153.302 21.5546 153.409 21.5197 153.758 21.3415L154.249 21.095C154.564 20.9194 154.81 21.0601 154.529 21.3067L150.952 24.3466ZM147.478 11.2015C147.478 10.9884 147.445 10.8831 147.27 10.707L146.007 9.43594C145.937 9.36362 145.937 9.4005 145.83 9.43594L144.955 9.82322V20.0371C144.955 20.3894 145.025 20.5656 145.269 20.7782L145.725 21.2008C146.04 21.4843 146.428 21.625 146.884 21.4139L147.478 21.1305V11.2015ZM167.472 21.7658L164.281 24.2414C163.928 24.5229 163.858 24.4525 163.437 24.206L160.106 22.155V26.2883L161.052 27.1037C161.158 27.1721 161.158 27.2445 161.052 27.3502L158.282 29.9292C158.212 29.9641 158.142 30.0345 158.001 29.9292L154.915 27.4206C154.81 27.3502 154.847 27.2794 154.915 27.1721L155.687 26.2883V11.0962L154.915 10.142C154.88 10.1047 154.847 10.1047 154.775 10.142L153.722 10.6715C153.478 10.8128 153.302 10.6366 153.512 10.4605L157.089 7.42041C157.194 7.31468 157.335 7.31468 157.405 7.38496L160 9.96389L164.7 7.42041C164.842 7.34951 164.947 7.38496 164.98 7.42041L167.332 9.61216C167.506 9.78777 167.718 10.0713 167.718 10.388V21.2008C167.718 21.4489 167.718 21.5901 167.472 21.7658ZM163.297 11.3072C163.297 11.0962 163.227 10.918 163.088 10.7774L162.105 9.82322C162.036 9.75283 161.966 9.75283 161.859 9.78777L160.106 10.4605V21.6604L161.089 21.9788C161.894 22.2254 162.245 22.1904 162.596 21.8735L162.947 21.5546C163.264 21.2712 163.297 20.9543 163.297 20.3894V11.3072ZM181.332 24.3466C181.19 24.4874 181.19 24.4525 181.086 24.3821L178.279 21.8735C178 21.625 177.86 21.4139 177.86 20.9543V11.2719C177.86 11.1666 177.86 11.0593 177.719 10.9535L176.772 10.1047C176.667 10.0363 176.527 10.0009 176.387 10.0713L174.596 10.918V20.0371C174.596 20.1779 174.561 20.319 174.703 20.4244L175.508 21.1305C175.719 21.3067 176.069 21.5197 176.387 21.4139L176.667 21.3067C177.018 21.1654 177.086 21.377 176.876 21.5546L173.651 24.3466C173.511 24.4874 173.474 24.4525 173.369 24.3821L170.528 21.8381C170.178 21.5546 170.178 21.4843 170.178 21.0247V5.33602C170.178 5.1599 170.178 5.12292 170.002 4.98225L169.651 4.66332C169.3 4.34643 169.16 4.41682 168.706 4.62991L168.003 4.9468C167.898 4.98225 167.791 4.84097 167.968 4.66332L171.685 1.51906C171.826 1.37829 171.826 1.41374 171.931 1.48412L174.177 3.56994C174.458 3.85189 174.596 4.02811 174.596 4.4872V10.388L179.262 7.42041C179.403 7.34951 179.541 7.34951 179.647 7.45535L181.928 9.57671C182.242 9.85867 182.312 10.0713 182.312 10.4235V20.106C182.312 20.2837 182.312 20.319 182.487 20.4598L183.366 21.2008C183.715 21.5197 183.855 21.4489 184.311 21.2377L185.014 20.9194C185.12 20.884 185.224 21.0247 185.049 21.2008L181.332 24.3466Z" fill="black"/>
</svg>
