<svg width="48" height="48" viewBox="0 0 48 48" fill="none" xmlns="http://www.w3.org/2000/svg">
<path d="M24 0C10.7265 0 0 10.7265 0 24C0 37.2735 10.7265 48 24 48C37.2735 48 48 37.2735 48 24C48 10.7265 37.2735 0 24 0ZM24 44.0131C12.9698 44.0131 3.98694 35.0302 3.98694 24C3.98694 12.9698 12.9698 3.98694 24 3.98694C35.0302 3.98694 44.0131 12.9698 44.0131 24C44.0131 35.0302 35.0302 44.0131 24 44.0131Z" fill="white"/>
<path d="M32.5714 31.4547C32.0522 30.6612 30.9747 30.4065 30.2008 30.9453C27.9869 32.5029 25.0188 31.0041 24.7445 30.9257C23.7257 30.6612 22.4131 30.7102 21.1396 30.8865C21.3257 30.4653 21.4824 30.0343 21.6294 29.5739C22.0212 28.3396 22.2269 27.0857 22.2465 25.9004H25.8906C26.8408 25.9004 27.6049 25.1363 27.6049 24.1861C27.6049 23.2359 26.8408 22.4718 25.8906 22.4718H21.7175C21.7175 22.462 21.7078 22.4425 21.7078 22.4327C20.8947 20.2384 21.3747 16.4376 23.7649 16.1045C26.9584 15.6735 27.5461 18.9845 27.5559 19.0922C27.6343 19.9641 28.369 20.64 29.2604 20.64C30.9159 20.64 30.9845 19.0629 30.9551 18.7102C30.9355 18.5535 30.1127 12.3233 23.7551 12.6759C17.8873 13.009 17.6033 20.6106 18.1126 22.4718H16.8882C15.938 22.4718 15.1739 23.2359 15.1739 24.1861C15.1739 25.1363 15.938 25.9004 16.8882 25.9004H18.818C18.7494 28.4473 17.4661 31.2588 15.9673 32.2188C15.2424 32.689 14.8996 33.6588 15.3404 34.4033C16.0065 35.5102 17.2506 35.3535 17.4269 35.2849C19.3273 34.6482 22.5796 33.9037 23.8727 34.2465C24.1273 34.3151 28.3102 36.4408 32.062 33.8155C32.8457 33.2767 33.0906 32.2482 32.5714 31.4547Z" fill="white"/>
</svg>
