<svg width="149" height="30" viewBox="0 0 149 30" fill="none" xmlns="http://www.w3.org/2000/svg">
<g clip-path="url(#clip0)">
<path d="M147.073 18.7003H143.422L139.771 15.6011L136.12 18.7003H132.47C131.948 18.7003 131.426 18.4937 131.114 18.1838C130.696 17.7706 130.592 17.3573 130.592 16.8408V8.67965C130.592 8.16312 130.801 7.64659 131.114 7.33667L131.218 7.23336L139.875 0.00195312L148.637 7.23336C148.95 7.54328 149.159 8.05981 149.159 8.57634V16.7375C149.159 17.254 148.95 17.7706 148.637 18.0805C148.116 18.4937 147.594 18.7003 147.073 18.7003ZM144.256 16.5309H146.864V8.78295L139.771 2.89452L132.678 8.78295V16.5309H135.182L139.667 12.8119L144.256 16.5309Z" fill="#00DEB6"/>
<path d="M14.29 5.88994C14.0814 5.68333 13.8728 5.58003 13.5599 5.47672C13.247 5.37341 13.0383 5.37341 12.7254 5.37341C12.4125 5.37341 12.2039 5.37341 11.891 5.47672C11.578 5.58003 11.3694 5.68333 11.1608 5.88994C10.9522 6.09655 10.7436 6.30317 10.6393 6.50978C10.535 6.8197 10.4307 7.12961 10.4307 7.43953C10.4307 7.74945 10.535 8.05937 10.6393 8.36928C10.7436 8.6792 10.9522 8.88581 11.1608 8.98912C11.3694 9.19573 11.578 9.29904 11.891 9.40234C12.2039 9.50565 12.4125 9.50565 12.7254 9.50565C13.0383 9.50565 13.247 9.50565 13.5599 9.40234C13.8728 9.29904 14.0814 9.19573 14.29 8.98912C14.4986 8.78251 14.7072 8.5759 14.8116 8.36928C14.9159 8.05937 15.0202 7.85275 15.0202 7.43953C15.0202 7.12961 14.9159 6.8197 14.8116 6.50978C14.7072 6.30317 14.4986 5.99325 14.29 5.88994ZM40.6796 10.642C39.9495 10.642 39.115 10.7453 38.3849 11.0552C37.6547 11.3652 37.0289 11.6751 36.6117 12.1916V5.47672H32.4394V24.0718H36.6117V17.047C36.6117 16.6338 36.716 16.3238 36.8203 15.9106C36.9246 15.6007 37.1332 15.2908 37.3418 14.9809C37.5504 14.6709 37.8633 14.4643 38.1763 14.361C38.4892 14.1544 38.9064 14.1544 39.4279 14.1544C40.1581 14.1544 40.6796 14.361 41.0969 14.7742C41.5141 15.1875 41.7227 15.8073 41.7227 16.5304V23.9685H45.895V16.0139C45.895 14.2577 45.3734 12.9147 44.4347 12.0883C43.4959 11.1585 42.2442 10.642 40.6796 10.642ZM24.1992 10.7453C23.0518 10.7453 21.9044 10.9519 20.9657 11.2618C20.0269 11.5718 19.1924 12.0883 18.4623 12.7081C17.7321 13.328 17.2106 14.0511 16.8977 14.9809C16.4805 15.8073 16.3762 16.8404 16.3762 17.8734C16.3762 18.8032 16.4805 19.6296 16.7934 20.3528C17.1063 21.0759 17.5235 21.799 18.0451 22.3156C18.5666 22.8321 19.1924 23.3486 20.0269 23.6586C20.757 23.9685 21.6958 24.0718 22.6346 24.0718C24.0949 24.0718 25.2422 23.6586 26.181 22.9354V23.8652C26.181 24.7949 25.8681 25.5181 25.3465 26.0346C24.825 26.5511 24.0949 26.7577 23.0518 26.7577C22.3216 26.7577 21.5915 26.6544 20.9657 26.4478C20.3398 26.2412 19.8183 26.0346 19.1924 25.7247L17.5235 28.6172C18.2537 29.1338 19.0881 29.4437 20.0269 29.6503C20.9657 29.8569 22.0087 29.9602 23.2604 29.9602C25.4508 29.9602 27.1198 29.4437 28.3714 28.4106C29.6231 27.3776 30.249 25.828 30.249 23.6586V11.6751C29.4145 11.3652 28.4757 11.1585 27.4327 10.9519C26.4939 10.7453 25.3465 10.7453 24.1992 10.7453ZM26.0767 18.2866C26.0767 19.1131 25.8681 19.7329 25.3465 20.1462C24.9293 20.5594 24.1992 20.766 23.3647 20.766C22.4259 20.766 21.8001 20.4561 21.2786 19.9395C20.757 19.423 20.5484 18.5966 20.5484 17.6668C20.5484 17.1503 20.6527 16.7371 20.757 16.3238C20.8613 15.9106 21.1743 15.4974 21.3829 15.1875C21.6958 14.8776 22.113 14.5676 22.5303 14.361C22.9475 14.1544 23.469 14.0511 24.0949 14.0511C24.5121 14.0511 24.9293 14.0511 25.1379 14.1544C25.4508 14.1544 25.6595 14.2577 25.9724 14.361V18.2866H26.0767ZM10.6393 24.0718H14.8116V10.9519H10.6393V24.0718ZM8.03162 10.7453C7.09286 10.7453 6.2584 10.9519 5.63256 11.3652C5.00672 11.7784 4.48519 12.1916 4.17227 12.6048L4.06796 10.9519H0V24.0718H4.17227V17.5635C4.17227 16.5304 4.48519 15.704 5.11103 15.1875C5.73687 14.6709 6.57132 14.361 7.51008 14.361C8.03162 14.361 8.44884 14.361 8.76177 14.4643L9.38761 10.9519C9.17899 10.9519 9.07469 10.8486 8.86607 10.8486C8.76177 10.7453 8.34454 10.7453 8.03162 10.7453ZM55.8041 21.0759C55.4912 21.1792 55.074 21.2825 54.6567 21.2825C54.1352 21.2825 53.718 21.0759 53.405 20.766C53.0921 20.4561 52.9878 19.9395 52.9878 19.3197V14.1544H56.5342V10.9519H52.9878V7.02631H48.8155V10.9519H46.6251V14.1544H48.8155V19.1131C48.8155 19.9395 48.9199 20.6627 49.1285 21.3858C49.3371 22.0057 49.5457 22.6255 49.9629 23.142C50.3802 23.6586 50.9017 23.9685 51.5275 24.2784C52.1534 24.5883 52.9878 24.6916 54.0309 24.6916C55.3869 24.6916 56.7429 24.2784 57.9945 23.4519L56.6386 20.766C56.4299 20.766 56.117 20.9726 55.8041 21.0759ZM126.003 18.08C126.003 16.9437 125.898 16.0139 125.585 15.0842C125.272 14.1544 124.855 13.328 124.334 12.7081C123.708 12.0883 123.082 11.5718 122.247 11.1585C121.413 10.7453 120.474 10.642 119.327 10.642C118.18 10.642 117.241 10.8486 116.302 11.2618C115.468 11.6751 114.633 12.1916 114.112 12.8114C113.486 13.4313 113.068 14.1544 112.756 14.9809C112.443 15.8073 112.234 16.7371 112.234 17.6668C112.234 18.6999 112.443 19.6296 112.756 20.5594C113.068 21.3858 113.59 22.2123 114.216 22.7288C114.842 23.3486 115.676 23.8652 116.615 24.1751C117.554 24.485 118.597 24.6916 119.744 24.6916C120.579 24.6916 121.413 24.5883 122.039 24.485C122.769 24.2784 123.291 24.1751 123.812 23.9685C124.334 23.7619 124.751 23.5552 125.064 23.3486C125.377 23.142 125.585 22.9354 125.794 22.9354L124.021 20.3528C123.708 20.5594 123.186 20.8693 122.56 21.1792C121.83 21.4891 120.996 21.5924 119.848 21.5924C118.701 21.5924 117.867 21.2825 117.241 20.766C116.615 20.2495 116.302 19.6296 116.302 18.9065H126.107V18.08H126.003ZM116.198 16.1172C116.198 15.8073 116.302 15.6007 116.406 15.2908C116.511 14.9809 116.719 14.7742 116.928 14.4643C117.136 14.2577 117.449 14.0511 117.867 13.8445C118.284 13.6379 118.701 13.6379 119.118 13.6379C119.64 13.6379 120.057 13.7412 120.37 13.8445C120.683 14.0511 120.996 14.1544 121.204 14.4643C121.413 14.6709 121.622 14.9809 121.726 15.2908C121.83 15.6007 121.935 15.9106 121.935 16.1172H116.198ZM108.062 10.9519L104.933 19.5263L101.699 10.9519H97.0053L102.846 24.0718H106.81L112.651 10.9519H108.062ZM95.545 12.6048C94.9191 11.985 94.0847 11.4685 93.2502 11.1585C92.3115 10.7453 91.3727 10.642 90.2253 10.642C89.1823 10.642 88.1392 10.8486 87.2004 11.1585C86.2617 11.5718 85.5315 11.985 84.9057 12.6048C84.2798 13.2247 83.7583 13.9478 83.4454 14.7742C83.1325 15.6007 82.9238 16.5304 82.9238 17.4602C82.9238 18.39 83.1325 19.3197 83.4454 20.1462C83.7583 20.9726 84.2798 21.6957 84.9057 22.3156C85.5315 22.9354 86.366 23.4519 87.2004 23.8652C88.1392 24.2784 89.0779 24.3817 90.2253 24.3817C91.2684 24.3817 92.3115 24.1751 93.2502 23.8652C94.189 23.4519 94.9191 23.0387 95.545 22.3156C96.1708 21.6957 96.6923 20.9726 97.0053 20.1462C97.3182 19.3197 97.5268 18.39 97.5268 17.4602C97.5268 16.5304 97.3182 15.6007 97.0053 14.7742C96.6923 13.9478 96.1708 13.2247 95.545 12.6048ZM93.2502 18.8032C93.1459 19.2164 92.9373 19.6296 92.6244 19.9395C92.3115 20.2495 91.9985 20.5594 91.5813 20.766C91.1641 20.9726 90.7469 21.0759 90.2253 21.0759C89.7038 21.0759 89.1823 20.9726 88.765 20.766C88.3478 20.5594 88.0349 20.3528 87.722 19.9395C87.409 19.6296 87.2004 19.2164 87.0961 18.8032C86.9918 18.39 86.8875 17.9767 86.8875 17.4602C86.8875 17.047 86.9918 16.5304 87.0961 16.1172C87.2004 15.704 87.409 15.2908 87.722 14.9809C88.0349 14.6709 88.3478 14.361 88.765 14.1544C89.1823 13.9478 89.7038 13.8445 90.2253 13.8445C90.7469 13.8445 91.2684 13.9478 91.5813 14.1544C91.9985 14.361 92.3115 14.5676 92.6244 14.9809C92.9373 15.2908 93.1459 15.704 93.2502 16.1172C93.3545 16.5304 93.4588 16.9437 93.4588 17.4602C93.4588 17.9767 93.4588 18.39 93.2502 18.8032ZM76.0396 10.642C75.2052 10.642 74.2664 10.8486 73.5362 11.1585C72.7018 11.4685 72.076 11.8817 71.4501 12.5015C71.2415 12.2949 71.1372 12.0883 70.8243 11.8817C70.6157 11.6751 70.3027 11.4685 69.9898 11.2618C69.6769 11.0552 69.2597 10.9519 68.8424 10.8486C68.4252 10.7453 67.9037 10.642 67.3821 10.642C66.4434 10.642 65.7132 10.8486 65.0874 11.1585C64.4616 11.4685 63.8357 11.8817 63.4185 12.3982L63.3142 10.9519H59.2462V24.0718H63.4185V17.047C63.4185 16.2205 63.6271 15.4974 64.1486 14.9809C64.6702 14.4643 65.296 14.1544 66.1305 14.1544C66.8606 14.1544 67.3821 14.361 67.7994 14.7742C68.1123 15.1875 68.3209 15.8073 68.3209 16.6338V24.0718H72.3889V17.047C72.3889 16.2205 72.5975 15.4974 73.119 14.9809C73.6406 14.4643 74.2664 14.1544 75.1008 14.1544C75.831 14.1544 76.3525 14.361 76.7698 14.7742C77.0827 15.1875 77.2913 15.8073 77.2913 16.6338V24.0718H81.4636V16.0139C81.4636 14.361 81.0463 13.1214 80.1076 12.0883C79.0645 11.1585 77.7085 10.642 76.0396 10.642Z" fill="#262637"/>
</g>
<defs>
<clipPath id="clip0">
<rect width="149" height="30" fill="white"/>
</clipPath>
</defs>
</svg>
