<svg width="17" height="17" viewBox="0 0 17 17" fill="none" xmlns="http://www.w3.org/2000/svg">
<path d="M16.4567 15.4843L12.4107 11.2762C13.451 10.0396 14.021 8.48359 14.021 6.86374C14.021 3.07913 10.9419 0 7.15726 0C3.37265 0 0.293518 3.07913 0.293518 6.86374C0.293518 10.6484 3.37265 13.7275 7.15726 13.7275C8.57806 13.7275 9.932 13.299 11.0896 12.4854L15.1664 16.7255C15.3368 16.9024 15.5659 17 15.8115 17C16.044 17 16.2646 16.9114 16.432 16.7502C16.7877 16.4079 16.799 15.8403 16.4567 15.4843ZM7.15726 1.79054C9.95468 1.79054 12.2305 4.06632 12.2305 6.86374C12.2305 9.66117 9.95468 11.9369 7.15726 11.9369C4.35984 11.9369 2.08406 9.66117 2.08406 6.86374C2.08406 4.06632 4.35984 1.79054 7.15726 1.79054Z" fill="#9D9D9D"/>
</svg>
