<svg width="48" height="48" viewBox="0 0 48 48" fill="none" xmlns="http://www.w3.org/2000/svg">
<path d="M30.4 14.731V19.9999H38.4V14.7319L34.392 10.731L30.4 14.731Z" fill="white"/>
<path d="M34.3828 8.79966C34.3844 8.79966 34.386 8.8005 34.3868 8.8005C34.3884 8.8005 34.3893 8.79966 34.39 8.79966C34.3957 8.79966 34.4004 8.80285 34.4061 8.80285C34.4685 8.80444 34.5308 8.81082 34.5908 8.82685C34.618 8.83247 34.6429 8.84682 34.6701 8.85488C34.6837 8.8605 34.6965 8.86369 34.7101 8.86932C34.8109 8.90775 34.9069 8.9581 34.9837 9.03488L40.8005 14.8676L42.0677 13.6004L34.3837 5.93082L26.7308 13.5988L27.9997 14.8676L33.8165 9.03488C33.966 8.8845 34.17 8.79966 34.3828 8.79966Z" fill="white"/>
<path d="M34.4 27.2C41.8991 27.2 48 21.0992 48 13.5999C48 6.10069 41.8992 0 34.4 0C28.8184 0 24.0159 3.38156 21.9232 8.20237C21.2768 8.06878 20.6328 7.99997 20 7.99997C14.2656 7.99997 9.6 13.0239 9.6 19.2V35.3064C7.69116 35.8064 5.80641 36.5096 3.95841 37.4168C3.32484 37.7272 2.68556 38.0537 2.04159 38.3936C0.782438 39.056 0 40.352 0 41.776V47.2C0 47.6416 0.358406 48 0.799969 48H9.6V44.8C9.6 44.3576 9.95841 44.0001 10.4 44.0001C10.8415 44.0001 11.1999 44.3576 11.1999 44.8V48H17.8199L9.18075 42.6832C8.83519 42.4712 8.70319 42.0336 8.87438 41.6656L11.232 36.5816C11.704 36.4808 12.1752 36.3928 12.6464 36.3185C12.6544 36.328 12.6648 36.3353 12.672 36.3465L20.0008 46.9929L27.3448 36.3553C27.3536 36.3425 27.3656 36.3338 27.3752 36.3218C27.8432 36.3962 28.3112 36.4841 28.78 36.5849L31.1264 41.6673C31.296 42.0352 31.164 42.4713 30.8192 42.6833L22.1896 47.9945L28.8 47.9961V44.8C28.8 44.3576 29.1584 44.0001 29.6 44.0001C30.0415 44.0001 30.3999 44.3576 30.3999 44.8V47.9968L39.2 48C39.4119 48 39.6159 47.9152 39.7656 47.7656C39.9159 47.6152 39.9999 47.412 39.9999 47.2V41.776C39.9999 40.3521 39.2175 39.0561 37.9583 38.3936C37.3135 38.0536 36.6743 37.7264 36.0424 37.4176C34.1935 36.5104 32.3088 35.8072 30.3999 35.3064V26.5976C31.6656 26.988 33.008 27.2 34.4 27.2ZM15.2 34.4296C14.5592 34.4624 13.9207 34.5272 13.2832 34.6048C13.2288 34.612 13.1743 34.6192 13.1199 34.6264C12.4783 34.7095 11.8375 34.8112 11.1999 34.9392V19.2C11.1999 13.9056 15.1479 9.6 20 9.6C20.4496 9.6 20.9079 9.64163 21.3704 9.72403C21.2192 10.2296 21.1048 10.7504 21.0128 11.2784C20.9744 11.4984 20.94 11.7184 20.9121 11.9384C20.8937 12.092 20.8745 12.2456 20.8609 12.4008C20.8249 12.8 20.8001 13.1992 20.8001 13.5999C20.8001 14.0208 20.8257 14.4368 20.8633 14.8495C20.8737 14.9575 20.8865 15.0647 20.8985 15.1719C20.9385 15.5183 20.9904 15.8616 21.0561 16.2008C21.0681 16.2639 21.0776 16.328 21.0912 16.3912C21.2336 17.0792 21.4248 17.7512 21.6681 18.3999H19.2C17.6288 18.3999 17.3192 17.5599 16.8353 15.1591L16.8121 15.0407C16.7353 14.6631 16.4233 14.3783 16.0129 14.3999C15.6273 14.4063 15.3008 14.6888 15.2385 15.0703C14.7841 17.8415 13.5745 18.3015 12.7049 18.4047C12.3025 18.4536 12.0001 18.7951 12.0001 19.1999V23.1999C12.0001 26.6679 13.2489 29.6799 15.2001 31.5592V34.4296H15.2ZM23.496 30.6272C23.4896 30.632 23.4816 30.6352 23.4752 30.64C21.6983 32.1824 19.3168 32.3825 17.3792 31.2488C17.3216 31.2144 17.2656 31.1744 17.2087 31.1377C17.0399 31.0305 16.8768 30.9081 16.7167 30.7801C14.8391 29.2625 13.5999 26.4697 13.5999 23.2001V19.8537C14.6039 19.5666 15.3904 18.9313 15.9528 17.9545C16.4728 19.1193 17.372 20.0002 19.2 20.0002H22.396C23.3432 21.777 24.6801 23.333 26.3288 24.5425C26.0568 27.1552 25.0008 29.3144 23.496 30.6272ZM28.8 34.94C28.1624 34.8112 27.5216 34.7095 26.88 34.6264C26.8256 34.6192 26.7712 34.6119 26.7168 34.6048C26.0792 34.5272 25.4407 34.4624 24.8 34.4296V31.6072C26.3152 30.1663 27.3976 28.0303 27.8095 25.488C27.8295 25.4992 27.848 25.5112 27.8679 25.5224C27.9503 25.568 28.0368 25.6073 28.1208 25.6512C28.3447 25.7672 28.568 25.8832 28.8 25.9881V34.94ZM29.6 21.6C29.1584 21.6 28.8 21.2416 28.8 20.8V16.3304L28.5664 16.5648C28.4167 16.7152 28.2127 16.8 27.9999 16.8C27.788 16.8 27.584 16.7152 27.4343 16.5656L25.0343 14.1656C24.7223 13.8528 24.7215 13.3472 25.0335 13.0352L33.8167 4.23516C33.9663 4.08394 34.1694 3.99994 34.3822 3.99994H34.3831C34.5943 3.99994 34.7983 4.08394 34.9479 4.23356L43.7648 13.0336C43.916 13.1832 44 13.3872 44 13.5992C44 13.8112 43.916 14.0152 43.7656 14.1656L41.3656 16.5656C41.216 16.7153 41.0128 16.8 40.8 16.8H40.7992C40.5863 16.8 40.3832 16.7152 40.2336 16.5648L39.9999 16.3304V20.8C39.9999 21.2416 39.6424 21.6 39.2 21.6H29.6Z" fill="white"/>
<path d="M22.818 45.7289L29.3764 41.6929L27.8644 38.4185L22.818 45.7289Z" fill="white"/>
<path d="M10.625 41.6937L17.193 45.7361L12.149 38.4089L10.625 41.6937Z" fill="white"/>
</svg>
