<svg width="120" height="16" viewBox="0 0 120 16" fill="none" xmlns="http://www.w3.org/2000/svg">
<path d="M8.00015 0.391357L10.472 5.40043L16 6.2039L11.9999 10.1027L12.9442 15.6084L8.00015 13.0091L3.05582 15.6084L4.00007 10.1027L0 6.2039L5.52799 5.40043L8.00015 0.391357Z" fill="#EFCE4A"/>
<path d="M34.0001 0.391357L36.472 5.40043L42 6.2039L37.9999 10.1027L38.9442 15.6084L34.0001 13.0091L29.0558 15.6084L30.0001 10.1027L26 6.2039L31.528 5.40043L34.0001 0.391357Z" fill="#EFCE4A"/>
<path d="M60.0001 0.391357L62.472 5.40043L68 6.2039L63.9999 10.1027L64.9442 15.6084L60.0001 13.0091L55.0558 15.6084L56.0001 10.1027L52 6.2039L57.528 5.40043L60.0001 0.391357Z" fill="#EFCE4A"/>
<path d="M86.0001 0.391357L88.472 5.40043L94 6.2039L89.9999 10.1027L90.9442 15.6084L86.0001 13.0091L81.0558 15.6084L82.0001 10.1027L78 6.2039L83.528 5.40043L86.0001 0.391357Z" fill="#EFCE4A"/>
<path d="M112 0.391357L114.472 5.40043L120 6.2039L116 10.1027L116.944 15.6084L112 13.0091L107.056 15.6084L108 10.1027L104 6.2039L109.528 5.40043L112 0.391357Z" fill="#EFCE4A"/>
</svg>
