<svg width="170" height="30" viewBox="0 0 170 30" fill="none" xmlns="http://www.w3.org/2000/svg">
<g clip-path="url(#clip0)">
<path d="M2.39453 18.3691V9.60648H0V7.21101L2.39453 6.88524V3.89675L7.56086 3.16133V6.88719H10.9871V9.61819H7.56086V17.9282C7.56086 19.4888 7.9901 20.2886 9.50497 20.2886C10.0439 20.2886 10.7792 20.2301 11.1546 20.152V22.1788C10.3269 22.6743 8.55601 23.0957 6.91988 23.0957C3.8401 23.0957 2.39645 21.7204 2.39645 18.3691H2.39453ZM36.8399 8.2761C38.1373 8.2761 38.8379 8.51018 38.8379 13.1568L34.507 13.4143C34.5647 9.20073 35.1922 8.2761 36.8399 8.2761ZM34.5493 15.3045H43.8618C43.8618 8.66039 41.6097 6.54191 36.9266 6.54191C32.2742 6.54191 29.2213 9.57722 29.2213 14.7895C29.2213 20.1735 31.9893 23.1522 37.3558 23.1522C40.2392 23.1522 42.5683 21.8452 43.2921 20.8504V19.3093C42.2084 19.6409 41.0939 19.8555 39.0959 19.8555C36.2759 19.8555 34.8227 18.373 34.5493 15.2909V15.3045ZM11.6011 21.3205L13.2565 20.548V3.32324L11.5145 2.50394V1.06626L17.9551 0.0128784H18.3921V8.63113H18.5653C19.9704 7.34366 21.8568 6.53996 23.9549 6.53996C26.592 6.53996 27.9009 7.87035 27.9009 10.773V20.5461L29.5755 21.3205V22.7777H21.0484V21.3205L22.723 20.5461V11.9571C22.723 10.3497 22.03 9.74888 20.6249 9.74888C19.855 9.74888 19.1235 9.89128 18.4883 10.1507V20.548L20.1629 21.3244V22.7816H11.6146V21.3186L11.6011 21.3205Z" fill="#A2C0D8"/>
<path d="M124.623 7.57462V9.01424L126.363 9.83354V20.5625L124.704 21.3427V22.8058H133.218V21.3622L131.559 20.582V6.53684H131.122L124.623 7.58827V7.57462ZM142.274 19.7178V15.4399L141.065 15.5569C139.862 15.674 138.877 16.4835 138.877 17.9992C138.877 19.7451 139.824 20.3206 140.821 20.3206C141.398 20.3206 141.986 20.0319 142.272 19.7158L142.274 19.7178ZM138.609 8.66896L137.512 11.8993H134.825V7.74433C136.276 7.28786 138.045 6.54269 140.784 6.54269C144.952 6.54269 147.456 7.79114 147.456 11.3414V20.5488L149.111 21.3291V22.5229C148.603 22.7999 147.452 23.153 146.195 23.153C144.569 23.153 143.11 22.6263 142.869 20.9097H142.715C142.022 22.3142 140.174 23.1725 138.23 23.1725C135.458 23.1725 133.707 21.3583 133.707 18.7249C133.707 15.4867 135.805 14.96 139.231 14.2382L142.215 13.7116V11.6458C142.215 9.61311 141.599 8.60264 139.616 8.60264C139.347 8.60264 138.865 8.63775 138.557 8.66896H138.609ZM149.535 21.3232L151.19 20.5625V9.83354L149.448 9.01424V7.59022L155.891 6.55634H156.328V8.66311H156.501C157.906 7.37564 159.792 6.57585 161.891 6.57585C164.528 6.57585 165.837 7.90233 165.837 10.8089V20.582L167.511 21.3622V22.8253H158.984V21.3818L160.659 20.6171V11.9579C160.659 10.3505 159.966 9.74966 158.561 9.74966C157.791 9.74966 157.059 9.89206 156.424 10.1515V20.5488L158.079 21.3252V22.7824H149.571V21.3193L149.535 21.3232ZM117.39 3.33767L115.653 2.53788V1.09435L122.148 0.040965H122.585V20.0748L124.24 20.9916V22.3571L118.081 23.0789H117.657V21.4403H117.484C116.83 22.2791 115.501 23.1569 113.557 23.1569C110.708 23.1569 107.301 21.3232 107.301 15.2565C107.301 8.87769 110.785 6.57585 114.924 6.57585C115.79 6.57585 116.81 6.77092 117.445 7.23909V3.33767H117.39ZM117.39 19.9967V9.28539C116.985 8.97328 116.562 8.71383 115.619 8.71383C113.994 8.71383 112.751 10.1964 112.751 14.6635C112.751 18.5766 113.732 20.2816 115.788 20.2816C116.587 20.2816 117.035 20.1177 117.386 19.9733L117.39 19.9967ZM52.9568 28.0532C50.1196 28.0532 49.1456 27.0388 49.1456 25.9464C49.1456 25.1856 49.3458 24.659 49.7461 24.1713H55.2378C56.5217 24.1713 57.1049 24.5614 57.1049 25.3807C57.1087 27.0193 56.2098 28.0532 52.9568 28.0532ZM53.0011 8.39001C54.1368 8.39001 54.8682 8.8972 54.8682 12.0574C54.8682 15.2175 54.1348 15.5472 53.0184 15.5472C51.902 15.5472 51.1821 15.2838 51.1821 12.0613C51.1821 8.84258 51.8943 8.39391 53.0261 8.39391L53.0011 8.39001ZM56.4466 19.3725H50.8645C50.2678 19.3725 49.7673 18.9044 49.7673 18.3582C49.7673 17.929 50.0753 17.4803 50.4603 17.1877C51.3072 17.4413 52.0002 17.5193 53.0396 17.5193C57.0625 17.5193 59.8151 15.6662 59.8151 12.2134C59.8151 10.6723 59.1799 9.79453 58.179 8.8972V8.78015L60.7583 9.69699L61.1048 9.7165V6.53489H60.816L56.845 7.33468H56.6237C55.6343 6.96404 54.2561 6.5739 53.0049 6.5739C48.982 6.5739 46.1986 8.59679 46.1986 12.032C46.1986 14.1251 47.238 15.6837 48.7914 16.5459V16.7118C47.8944 17.3516 46.1736 18.6664 46.1736 20.3498C46.1736 21.5788 46.9743 22.7941 48.649 23.1589V23.3286C46.8877 23.6992 44.9147 24.2844 44.9147 26.3327C44.9147 28.4394 47.9271 30 52.8375 30C58.9393 30 61.5802 27.6201 61.5802 23.8553C61.5802 20.7536 59.8863 19.3101 56.4408 19.3101L56.4466 19.3725ZM95.5405 7.59022V9.03375L97.2922 9.85305V20.582L95.6368 21.3622V22.8253H104.605V21.3818L102.468 20.6015V11.7628C103.354 11.3336 104.518 11.1893 105.914 11.1893C106.372 11.1893 106.915 11.2478 107.228 11.3317V6.71045C107.055 6.65193 106.714 6.62462 106.458 6.62462C104.745 6.62462 103.346 7.74238 102.432 9.8628H102.278V6.52318H101.835L95.5405 7.57266V7.59022ZM88.3801 19.7432V15.4516L87.1866 15.5686C85.9932 15.6857 85.0115 16.505 85.0115 18.0265C85.0115 19.7822 85.9547 20.3479 86.9557 20.3479C87.5331 20.3479 88.1221 20.0553 88.407 19.7432H88.3801ZM84.7036 8.68262L83.6064 11.9208H80.9116V7.74433C82.3745 7.28786 84.1454 6.54269 86.8787 6.54269C91.0556 6.54269 93.5579 7.79114 93.5579 11.3414V20.5488L95.2133 21.3291V22.5229C94.7129 22.7999 93.5579 23.153 92.3068 23.153C90.6899 23.153 89.227 22.6263 88.996 20.9097H88.842C88.1491 22.3142 86.3012 23.1725 84.3686 23.1725C81.6026 23.1725 79.8645 21.3583 79.8645 18.7249C79.8645 15.4867 81.976 14.96 85.4004 14.2382L88.3993 13.7116V11.6458C88.3993 9.61311 87.7949 8.60264 85.8007 8.60264C85.5409 8.60264 85.05 8.63775 84.7382 8.66896L84.7036 8.68262ZM63.2606 9.83354L61.5282 9.01424V7.59022L68.0343 6.55634H68.477V17.693C68.477 19.4974 69.3489 19.8192 70.6617 19.8192C71.6241 19.8192 72.0091 19.6437 72.5288 19.4427V9.83159L70.7772 9.01229V7.57462L77.264 6.52513H77.6874V20.0631L79.4198 20.9799V22.3532L73.1063 23.0555H72.652L72.6462 20.9487H72.473C71.4759 22.1972 69.8302 23.114 67.7186 23.114C64.5811 23.114 63.2394 20.8512 63.2394 18.1007V9.83159L63.2606 9.83354ZM128.858 0C130.398 0 131.639 1.26211 131.639 2.82073C131.639 4.3774 130.394 5.64146 128.856 5.64146C127.316 5.64146 126.065 4.393 126.065 2.83243C126.065 1.27186 127.316 0.0234085 128.856 0.0234085L128.858 0ZM166.682 21.9182L170 21.926L166.682 21.9182Z" fill="#0A5787"/>
</g>
<defs>
<clipPath id="clip0">
<rect width="170" height="30" fill="white"/>
</clipPath>
</defs>
</svg>
