<svg width="20" height="18" viewBox="0 0 20 18" fill="none" xmlns="http://www.w3.org/2000/svg">
<path d="M7.46131 17.164C6.59644 17.164 5.70625 17.094 4.81071 16.9536C3.23342 16.7061 1.63674 15.8811 1.18493 15.634L-6.10352e-05 14.9861L1.28289 14.5642C2.68532 14.1031 3.53844 13.817 4.59449 13.369C3.53707 12.8569 2.7221 11.9357 2.32979 10.7449L2.03133 9.83887L2.27608 9.87626C2.044 9.64234 1.86074 9.40491 1.71868 9.189C1.21347 8.42164 0.94598 7.48399 1.0029 6.68046L1.05905 5.8896L1.53253 6.07301C1.33279 5.69581 1.18844 5.29298 1.1036 4.87077C0.896847 3.8411 1.06988 2.7472 1.59097 1.79063L2.00341 1.03349L2.55501 1.69602C4.29954 3.79166 6.50916 5.0348 9.13168 5.39872C9.02456 4.66035 9.10482 3.94776 9.37048 3.30903C9.67977 2.56532 10.23 1.93467 10.9612 1.48515C11.7733 0.986031 12.7581 0.744179 13.7342 0.804146C14.7698 0.867775 15.71 1.25581 16.4568 1.92704C16.8215 1.83228 17.0902 1.73112 17.4533 1.5944C17.6718 1.51215 17.9196 1.41877 18.2297 1.31196L19.3723 0.918282L18.6272 3.04627C18.6763 3.04215 18.727 3.03864 18.7799 3.03635L20 2.98112L19.2789 3.96668C19.2375 4.02314 19.227 4.03916 19.2124 4.06129C19.1542 4.14887 19.0819 4.25782 18.0921 5.57954C17.8443 5.9105 17.7205 6.34156 17.7436 6.79353C17.8313 8.51105 17.6206 10.065 17.1169 11.4121C16.6405 12.6865 15.9023 13.7799 14.923 14.662C13.7111 15.7533 12.1659 16.5006 10.3299 16.8826C9.42938 17.07 8.46228 17.164 7.46131 17.164Z" fill="#D1D1D1"/>
</svg>
